<?xml version="1.0" standalone="no"?>
<!DOCTYPE svg PUBLIC "-//W3C//DTD SVG 20010904//EN"
 "http://www.w3.org/TR/2001/REC-SVG-20010904/DTD/svg10.dtd">
<svg version="1.0" xmlns="http://www.w3.org/2000/svg"
 width="1080.000000pt" height="1080.000000pt" viewBox="0 0 1080.000000 1080.000000"
 preserveAspectRatio="xMidYMid meet">

<g transform="translate(0.000000,1080.000000) scale(0.100000,-0.100000)"
fill="#000000" stroke="none">
<path d="M4957 9124 c-3 -3 -50 -9 -104 -13 l-98 -6 3 -100 c2 -55 8 -129 13
-165 5 -36 14 -117 19 -180 11 -127 15 -144 30 -135 6 4 68 11 138 16 186 12
256 42 329 141 36 50 38 57 41 139 3 72 0 94 -18 138 -30 69 -104 135 -174
155 -53 16 -167 22 -179 10z m132 -69 c55 -13 75 -23 103 -53 65 -68 84 -173
48 -255 -38 -87 -126 -131 -277 -143 -108 -8 -98 -21 -108 151 -3 61 -10 128
-15 150 -5 22 -10 64 -10 93 l0 52 43 1 c23 0 62 4 87 8 25 5 49 9 53 10 4 0
39 -6 76 -14z"/>
<path d="M6472 9018 c-7 -7 -12 -25 -12 -40 0 -29 27 -44 67 -36 22 4 30 52
12 74 -14 17 -51 18 -67 2z"/>
<path d="M5576 8995 c-63 -16 -131 -77 -142 -128 -4 -15 -11 -30 -15 -33 -14
-8 -10 -85 7 -134 21 -60 67 -106 131 -130 69 -26 128 -25 192 2 42 17 51 25
49 42 -4 27 -39 32 -80 12 -41 -21 -77 -20 -130 3 -53 23 -86 57 -94 99 -6 27
-3 32 19 37 14 4 30 4 36 1 15 -10 269 -26 287 -19 13 5 15 16 9 61 -9 74 -17
93 -56 131 -54 55 -135 76 -213 56z m153 -92 c27 -25 44 -50 48 -71 l6 -34
-124 7 c-164 8 -172 10 -164 38 4 12 24 39 45 60 36 33 44 37 93 37 49 0 59
-4 96 -37z"/>
<path d="M4243 8972 c-27 -4 -31 -41 -9 -83 7 -14 16 -42 20 -62 4 -20 13 -49
21 -64 8 -15 15 -36 15 -45 0 -10 6 -32 14 -50 8 -18 24 -67 36 -108 37 -128
50 -151 79 -148 21 2 27 9 29 36 2 19 -4 44 -12 57 -9 14 -16 32 -16 42 0 15
-49 172 -85 273 -7 19 -18 54 -24 77 -14 53 -39 81 -68 75z"/>
<path d="M6000 8919 c-49 -27 -60 -46 -60 -104 0 -41 5 -56 23 -72 28 -25 94
-59 133 -67 34 -8 84 -50 84 -71 0 -19 -50 -65 -71 -65 -27 0 -128 38 -160 61
-28 20 -31 20 -54 5 -14 -9 -25 -21 -25 -26 0 -20 96 -69 158 -81 85 -16 149
-6 184 28 24 23 28 35 28 79 0 65 -18 82 -143 138 -84 37 -87 40 -87 72 0 27
6 36 30 49 43 22 80 18 150 -17 60 -30 64 -30 77 -13 18 26 17 32 -14 52 -79
52 -192 66 -253 32z"/>
<path d="M3958 8870 c-22 -14 -15 -35 62 -194 74 -151 92 -213 79 -259 -25
-86 -137 -146 -222 -118 -54 18 -81 56 -168 236 -45 94 -84 172 -85 174 -8 9
-54 -31 -54 -47 0 -22 113 -261 157 -329 18 -29 51 -65 74 -80 36 -24 51 -27
113 -27 53 1 82 7 116 24 93 47 150 124 150 206 0 47 -6 64 -65 189 -18 39
-50 107 -71 152 -39 83 -51 93 -86 73z"/>
<path d="M6402 8771 c-12 -38 -22 -78 -22 -89 0 -12 -4 -23 -9 -26 -5 -3 -15
-30 -21 -58 -7 -29 -16 -58 -21 -63 -4 -6 -11 -29 -15 -51 -6 -41 1 -54 37
-67 18 -6 19 -3 94 238 20 66 41 130 46 143 15 37 11 42 -29 42 l-37 0 -23
-69z"/>
<path d="M6645 8711 c-135 -84 -154 -245 -42 -347 57 -51 110 -68 184 -61 l52
5 -11 -26 c-32 -73 -94 -109 -161 -91 -65 17 -113 46 -144 84 -30 37 -53 44
-72 21 -9 -10 -9 -20 -2 -34 13 -25 88 -92 103 -92 6 0 19 -6 27 -14 9 -7 43
-21 75 -31 51 -14 65 -15 103 -3 62 18 110 68 151 158 18 41 49 107 67 145 78
169 81 176 60 191 -27 20 -44 17 -56 -10 -11 -24 -12 -24 -44 22 -44 64 -118
102 -200 102 -41 0 -69 -6 -90 -19z m168 -60 c63 -27 107 -84 107 -138 0 -139
-167 -203 -268 -103 -78 78 -57 201 43 245 42 19 67 18 118 -4z"/>
<path d="M3361 8701 c-8 -5 -12 -18 -8 -32 3 -13 13 -55 21 -92 9 -38 20 -77
26 -87 5 -10 10 -29 10 -42 0 -13 6 -43 14 -68 8 -25 24 -83 36 -130 11 -47
27 -107 35 -135 8 -27 17 -70 21 -94 l6 -44 -33 7 c-19 4 -56 11 -84 16 -48 8
-86 17 -185 44 -42 11 -45 15 -52 51 -19 113 -28 191 -28 240 0 29 -4 56 -9
59 -4 3 -18 -6 -31 -19 -24 -26 -25 -52 -4 -247 6 -55 5 -58 -15 -58 -12 0
-30 4 -40 10 -10 5 -43 14 -72 19 -30 5 -75 15 -102 22 -44 12 -49 11 -72 -11
-14 -13 -25 -26 -25 -29 0 -4 24 -12 53 -20 92 -23 171 -42 222 -53 28 -6 51
-12 52 -13 2 -1 7 -66 13 -146 16 -220 21 -236 68 -186 21 22 21 25 7 102 -8
44 -14 111 -15 148 l0 69 33 -7 c17 -4 68 -15 112 -25 126 -30 149 -31 184 -9
30 18 32 18 37 2 20 -63 22 -65 49 -47 16 10 24 23 20 33 -11 37 -48 180 -60
234 -8 32 -17 66 -20 75 -7 16 -16 53 -48 187 -7 33 -19 76 -24 95 -10 32 -23
79 -41 155 -8 31 -27 41 -51 26z"/>
<path d="M7214 8502 c-6 -4 -17 -19 -25 -33 -8 -15 -32 -53 -55 -85 -114 -166
-144 -212 -144 -226 0 -9 11 -23 24 -31 23 -16 24 -15 81 71 32 48 76 106 99
130 36 38 45 42 87 42 54 0 123 -43 140 -88 17 -45 3 -81 -81 -207 -72 -108
-78 -121 -63 -132 39 -30 56 -17 135 105 81 125 94 159 84 227 -12 79 -123
161 -207 153 -36 -3 -37 -3 -32 28 4 25 1 34 -14 42 -10 6 -24 8 -29 4z"/>
<path d="M8061 7992 l-21 -17 32 -37 c71 -79 100 -120 92 -128 -5 -5 -38 -32
-74 -60 -36 -29 -88 -73 -115 -98 -28 -26 -80 -71 -117 -100 -37 -29 -68 -58
-71 -65 -5 -15 22 -57 37 -57 6 0 57 39 113 88 55 48 141 121 190 163 l89 76
25 -21 c14 -11 38 -39 54 -61 49 -67 51 -68 80 -49 26 17 32 30 16 36 -5 2
-36 37 -69 78 -108 133 -213 255 -227 262 -7 5 -22 1 -34 -10z"/>
<path d="M2605 7909 c-8 -24 -9 -22 72 -86 258 -201 291 -249 239 -352 -34
-66 -94 -111 -148 -111 -48 0 -81 17 -173 90 -38 30 -88 68 -110 84 -22 16
-55 42 -72 59 l-33 31 -25 -24 -25 -24 32 -34 c18 -18 65 -57 103 -87 39 -29
86 -67 105 -84 87 -78 198 -103 278 -62 42 22 109 90 135 138 22 41 24 165 2
183 -8 7 -15 18 -15 24 -1 19 -42 63 -106 113 -34 26 -93 74 -131 106 -76 62
-116 73 -128 36z"/>
<path d="M7440 7897 c-28 -14 -38 -51 -20 -73 19 -22 66 -17 84 8 20 29 20 34
-4 58 -23 23 -27 24 -60 7z"/>
<path d="M8177 7399 c-124 -65 -170 -183 -117 -302 24 -54 112 -137 145 -137
31 0 46 40 20 55 -72 42 -125 115 -125 172 0 36 40 113 58 113 8 0 72 -86 72
-97 0 -3 15 -29 33 -57 19 -28 47 -72 63 -97 28 -44 29 -45 56 -31 42 20 85
80 98 133 41 169 -153 327 -303 248z m168 -68 c16 -9 40 -33 53 -52 31 -45 27
-126 -7 -163 -27 -29 -42 -26 -59 12 -7 15 -18 36 -25 47 -25 40 -52 80 -57
85 -3 3 -13 21 -22 41 -16 36 -16 37 5 47 26 13 71 6 112 -17z"/>
<path d="M8431 6954 c-62 -19 -107 -58 -137 -117 -22 -43 -26 -60 -21 -107 8
-91 47 -151 125 -196 33 -19 34 -19 48 0 22 30 17 40 -27 65 -54 31 -79 73
-79 137 0 95 66 154 172 154 52 0 62 -3 92 -32 19 -19 41 -54 49 -81 14 -41
14 -52 2 -81 -14 -32 -13 -35 10 -50 32 -21 33 -21 50 20 19 46 19 77 -1 133
-29 84 -72 131 -143 156 -53 18 -81 18 -140 -1z"/>
<path d="M2136 6944 c-9 -24 -7 -90 4 -118 11 -29 11 -30 -24 -16 -22 8 -28 6
-42 -15 -9 -13 -13 -28 -10 -33 3 -5 81 -42 173 -81 93 -40 176 -76 185 -82
29 -15 44 -11 57 17 15 33 5 41 -94 79 -160 62 -200 103 -190 196 5 47 3 58
-10 63 -27 10 -43 7 -49 -10z"/>
<path d="M2528 6946 c-23 -17 -23 -49 0 -69 24 -22 55 -21 75 1 22 24 21 38
-3 62 -23 23 -47 25 -72 6z"/>
<path d="M2085 6574 c-78 -19 -155 -125 -155 -215 0 -53 28 -124 62 -156 39
-36 109 -63 167 -63 103 0 180 60 216 169 32 97 2 192 -53 170 -22 -8 -22 -10
-8 -31 34 -48 7 -141 -56 -200 -32 -30 -48 -38 -79 -38 -22 0 -39 2 -39 5 0 6
26 98 51 180 30 101 44 164 37 171 -8 8 -117 14 -143 8z m75 -85 c0 -11 -7
-44 -16 -72 -19 -66 -56 -181 -59 -185 -1 -1 -14 2 -27 9 -32 14 -68 77 -68
118 0 75 69 151 138 151 26 0 32 -4 32 -21z"/>
<path d="M8936 6563 c-4 -4 -33 -13 -64 -20 -31 -7 -88 -22 -127 -33 -38 -12
-88 -25 -110 -29 -91 -18 -201 -54 -219 -71 -12 -12 -16 -24 -11 -40 8 -25 5
-25 130 10 44 13 105 25 137 27 53 4 58 3 97 -32 46 -42 61 -99 42 -157 -16
-50 -57 -68 -246 -110 -27 -6 -57 -17 -66 -25 -18 -15 -14 -52 6 -59 18 -7
269 61 306 82 57 34 74 67 73 143 -1 75 -28 138 -71 166 -13 9 -23 19 -23 23
0 6 49 22 156 51 50 13 65 29 57 59 -4 16 -13 22 -32 22 -15 0 -31 -3 -35 -7z"/>
<path d="M1968 6070 c-114 -34 -178 -197 -119 -305 l21 -40 -22 -3 c-32 -5
-48 -21 -48 -47 0 -18 7 -24 38 -29 20 -3 58 -6 83 -6 26 0 82 -7 125 -15 44
-8 124 -19 179 -25 55 -5 117 -13 138 -16 l38 -6 -3 38 -3 39 -90 8 c-125 12
-123 11 -82 56 41 46 53 99 42 189 -6 51 -12 62 -55 104 -65 63 -155 84 -242
58z m152 -82 c64 -33 85 -67 84 -136 0 -96 -57 -152 -153 -152 -59 0 -93 15
-135 58 -26 28 -28 35 -24 94 8 132 113 194 228 136z"/>
<path d="M8750 5930 c-231 -24 -230 -24 -230 -61 l0 -31 153 6 c166 8 183 4
220 -46 15 -20 20 -44 21 -88 1 -55 -2 -64 -26 -85 -33 -29 -148 -55 -242 -55
-82 0 -99 -8 -94 -41 l3 -24 132 2 c223 5 293 48 293 181 0 69 -16 117 -49
146 -28 26 -27 33 9 41 34 8 33 5 20 39 -9 25 -13 26 -77 24 -38 0 -97 -4
-133 -8z"/>
<path d="M1955 5508 c-94 -25 -157 -113 -157 -218 0 -209 235 -308 381 -162
37 37 50 59 60 105 14 58 12 78 -21 168 -15 42 -69 87 -123 104 -57 17 -83 17
-140 3z m171 -96 c21 -16 36 -41 48 -78 16 -52 16 -56 -3 -98 -42 -97 -148
-134 -232 -81 -94 60 -107 179 -27 251 33 31 45 34 118 31 50 -2 72 -8 96 -25z"/>
<path d="M8550 5333 l0 -31 113 -7 c61 -3 157 -5 212 -3 l100 3 3 28 c2 16 -2
29 -10 32 -7 2 -104 6 -216 7 l-202 3 0 -32z"/>
<path d="M9089 5339 c-19 -36 3 -69 45 -69 39 0 53 22 42 66 -5 20 -13 24 -41
24 -25 0 -37 -6 -46 -21z"/>
<path d="M8673 5161 c-70 -18 -111 -58 -142 -139 -25 -65 -26 -98 -5 -154 24
-61 48 -85 68 -68 21 17 20 31 -6 84 -19 39 -20 50 -10 83 18 59 46 98 85 116
87 42 188 5 226 -82 11 -27 21 -57 21 -66 0 -21 -27 -74 -52 -102 -25 -27 -21
-67 7 -71 30 -4 62 35 85 103 24 71 25 88 3 151 -33 99 -85 141 -186 148 -34
3 -77 1 -94 -3z"/>
<path d="M2230 4970 c-8 -6 -40 -10 -70 -10 -30 -1 -77 -5 -105 -11 -27 -5
-98 -16 -157 -24 -59 -7 -125 -19 -145 -24 -21 -6 -51 -11 -66 -11 -26 0 -28
-3 -25 -32 l3 -33 60 3 c33 1 92 9 130 17 39 7 108 19 155 25 265 34 272 35
263 70 -7 28 -26 41 -43 30z"/>
<path d="M2007 4736 c-49 -30 -83 -77 -98 -137 -25 -93 35 -209 129 -250 45
-19 137 -26 146 -10 3 4 18 11 34 14 35 7 98 68 117 114 8 19 15 59 15 87 -1
120 -83 239 -136 196 -13 -12 -11 -17 14 -44 34 -36 62 -103 62 -147 0 -49
-55 -139 -86 -139 -14 0 -30 39 -49 120 -30 125 -46 183 -55 201 -14 25 -47
24 -93 -5z m72 -103 c7 -27 21 -78 32 -115 25 -88 25 -118 -1 -118 -64 0 -150
81 -150 142 0 52 56 138 90 138 10 0 20 -16 29 -47z"/>
<path d="M8520 4712 c-50 -27 -81 -88 -82 -159 0 -32 2 -69 6 -81 6 -18 3 -22
-13 -22 -17 0 -41 -26 -41 -44 0 -11 63 -37 148 -63 115 -34 219 -37 259 -7
39 29 71 101 79 176 7 79 -6 121 -39 116 -20 -3 -22 -9 -27 -88 -7 -124 -49
-173 -132 -155 -26 6 -29 10 -23 33 4 15 11 43 16 62 4 19 13 56 20 82 11 41
10 53 -5 85 -33 72 -103 99 -166 65z m94 -73 c22 -18 26 -28 26 -74 0 -30 -4
-56 -9 -59 -5 -3 -14 -26 -20 -52 -11 -44 -12 -45 -44 -39 -43 9 -65 31 -78
75 -14 47 3 111 39 145 33 30 51 31 86 4z"/>
<path d="M8333 4248 c-30 -39 -24 -44 95 -93 65 -26 135 -54 157 -62 22 -7 49
-18 60 -23 11 -5 45 -19 75 -30 30 -12 74 -30 98 -41 56 -25 70 -24 84 6 13
30 9 35 -52 59 -25 10 -63 27 -86 37 -23 10 -48 19 -57 19 -9 0 -18 4 -22 10
-3 5 -20 14 -38 19 -18 5 -87 32 -155 60 -131 55 -144 58 -159 39z"/>
<path d="M2000 4203 c1 -46 9 -48 215 -53 l195 -5 -36 -40 c-20 -22 -79 -83
-131 -137 -85 -87 -93 -99 -87 -125 4 -15 10 -32 15 -37 5 -5 42 27 86 75 43
46 116 123 161 171 l84 86 -11 35 c-8 22 -20 37 -34 41 -12 3 -120 6 -239 6
-201 0 -218 -1 -218 -17z"/>
<path d="M2536 3885 c-8 -23 1 -38 39 -63 87 -56 116 -165 62 -236 l-29 -37
-17 23 c-9 13 -41 64 -70 113 -77 131 -102 165 -119 165 -29 0 -98 -84 -111
-135 -20 -81 0 -147 64 -211 37 -37 63 -55 89 -60 194 -36 343 141 265 314
-43 95 -154 177 -173 127z m-38 -261 c33 -56 57 -105 54 -108 -3 -3 -30 -6
-59 -6 -49 0 -58 4 -96 39 -41 39 -42 41 -42 104 0 56 4 69 25 92 l24 26 17
-22 c9 -12 44 -68 77 -125z"/>
<path d="M8165 3852 c-105 -75 -167 -221 -135 -316 17 -53 70 -90 130 -90 53
0 77 15 182 111 58 53 105 83 132 83 8 0 28 -11 43 -24 23 -20 28 -32 27 -69
-1 -56 -31 -108 -98 -169 -43 -40 -49 -50 -40 -65 6 -10 18 -19 25 -21 22 -4
98 66 137 127 29 45 36 67 40 123 4 59 2 72 -19 102 -68 100 -175 88 -294 -34
-49 -50 -110 -90 -138 -90 -8 0 -26 9 -41 21 -21 17 -26 29 -26 68 0 74 77
181 152 212 21 9 28 18 26 33 -5 34 -55 33 -103 -2z"/>
<path d="M2695 3419 c-114 -46 -205 -182 -192 -289 3 -26 10 -57 15 -67 40
-82 67 -121 132 -193 41 -45 80 -90 86 -98 15 -21 39 -10 96 44 24 22 75 67
113 99 128 108 235 209 235 223 0 17 -151 193 -199 231 -86 69 -193 87 -286
50z m174 -66 c57 -19 130 -81 196 -167 l29 -38 -35 -32 c-20 -17 -86 -76 -148
-131 -165 -146 -147 -141 -217 -66 -79 84 -104 129 -111 194 -11 103 33 180
131 227 72 35 82 36 155 13z"/>
<path d="M7855 3413 c-66 -35 -100 -82 -120 -167 -10 -45 -12 -47 -27 -32 -9
9 -21 16 -27 16 -11 0 -31 -32 -31 -49 0 -5 39 -43 88 -83 48 -39 113 -97 145
-128 32 -30 65 -59 73 -63 17 -10 54 17 54 39 0 7 -41 48 -91 91 -103 89 -129
125 -129 179 0 47 39 107 81 124 61 25 99 9 210 -88 83 -72 107 -88 124 -82
13 5 20 16 20 32 0 20 -23 44 -101 111 -56 47 -115 92 -132 101 -39 20 -98 20
-137 -1z"/>
<path d="M7416 3201 c-17 -19 -16 -22 38 -90 31 -38 60 -73 66 -76 5 -3 10
-13 10 -21 0 -10 -13 -14 -48 -14 -49 0 -74 -12 -125 -59 -102 -92 -86 -247
34 -343 39 -32 117 -46 183 -34 52 10 143 96 152 144 9 52 13 56 35 36 16 -14
24 -15 44 -6 14 6 25 17 25 23 0 7 -20 35 -44 63 -45 53 -132 160 -224 275
-69 86 -103 121 -117 121 -7 0 -20 -9 -29 -19z m146 -261 c49 -14 104 -76 113
-129 9 -56 -8 -103 -56 -145 -35 -32 -45 -36 -95 -36 -54 0 -57 1 -110 55 -47
49 -54 61 -54 96 0 74 44 140 106 159 40 11 53 11 96 0z"/>
<path d="M7013 2892 c-11 -7 -5 -23 60 -141 15 -28 27 -53 27 -56 0 -3 -25 -5
-55 -5 -68 0 -118 -23 -168 -79 -61 -68 -71 -148 -28 -236 37 -76 121 -135
192 -135 88 0 200 74 215 143 l7 31 21 -26 c16 -20 26 -24 42 -18 12 5 25 13
28 19 4 6 -24 64 -62 128 -37 65 -71 125 -75 133 -4 8 -18 33 -32 55 -13 22
-28 49 -33 60 -6 11 -21 36 -35 56 -14 21 -28 46 -32 58 -6 21 -47 29 -72 13z
m136 -297 c21 -19 46 -56 56 -81 15 -41 16 -51 4 -87 -19 -59 -52 -92 -103
-107 -78 -22 -154 12 -186 83 -53 116 14 227 137 227 46 0 58 -4 92 -35z"/>
<path d="M3423 2861 c-89 -22 -183 -141 -183 -231 1 -114 138 -234 244 -213
l29 6 -23 -39 c-13 -21 -44 -68 -69 -103 l-44 -63 23 -18 c40 -30 24 -49 314
378 67 100 69 103 51 122 -23 25 -41 25 -55 0 -14 -26 -26 -19 -33 19 -8 38
-60 97 -106 120 -45 23 -106 32 -148 22z m110 -77 c62 -31 107 -92 107 -144 0
-26 -37 -104 -57 -122 -28 -25 -80 -48 -106 -48 -62 0 -148 67 -163 126 -15
58 37 148 105 184 45 24 73 25 114 4z"/>
<path d="M3863 2582 c-7 -4 -10 -17 -6 -30 5 -19 12 -22 60 -22 107 0 193 -76
193 -171 0 -52 5 -53 -217 52 -58 27 -113 49 -122 47 -21 -4 -36 -98 -27 -162
15 -98 122 -173 232 -164 134 11 236 166 194 293 -30 90 -139 165 -240 165
-30 0 -60 -4 -67 -8z m114 -268 c51 -24 93 -48 93 -53 0 -14 -59 -60 -86 -67
-71 -18 -167 44 -179 116 -4 22 -4 48 0 59 7 23 8 22 172 -55z"/>
<path d="M6480 2450 c-59 -28 -77 -46 -106 -102 -52 -102 -10 -249 85 -297
158 -80 351 27 350 194 0 64 -41 149 -91 189 -33 26 -47 30 -115 33 -64 3 -86
0 -123 -17z m147 -51 c45 -17 82 -59 97 -110 21 -68 8 -115 -45 -161 -37 -34
-47 -38 -97 -38 -67 0 -114 31 -143 94 -23 50 -24 85 -4 132 31 74 118 111
192 83z"/>
<path d="M4424 2368 c-4 -13 -15 -34 -24 -48 -10 -14 -55 -86 -101 -160 -45
-74 -104 -170 -131 -212 -26 -42 -48 -79 -48 -82 0 -4 17 -6 39 -6 36 0 40 3
77 63 21 34 44 70 49 79 82 142 165 271 171 265 10 -9 33 -184 38 -292 8 -135
18 -194 38 -206 26 -17 53 -9 74 24 12 17 34 52 51 77 16 25 32 52 36 60 4 8
25 42 47 75 21 33 53 84 70 112 17 29 35 55 40 58 5 3 11 -21 15 -52 3 -32 10
-89 15 -128 5 -38 13 -121 16 -183 6 -99 10 -115 28 -127 30 -22 69 -20 63 3
-7 24 -24 182 -38 342 -21 255 -20 249 -38 254 -69 18 -68 19 -101 -36 -122
-205 -230 -371 -238 -364 -3 4 -12 80 -18 169 -6 89 -18 197 -25 241 -11 67
-17 79 -37 87 -38 15 -60 10 -68 -13z"/>
<path d="M6161 2353 c-21 -4 -23 -8 -16 -50 3 -24 13 -63 21 -86 9 -23 16 -76
17 -119 2 -69 0 -79 -23 -103 -14 -15 -40 -34 -57 -41 -33 -14 -41 -36 -24
-63 13 -21 74 3 109 43 l29 33 21 -24 c16 -18 28 -23 44 -17 13 3 24 7 25 8 2
2 -33 147 -52 212 -8 28 -15 59 -15 70 0 29 -36 138 -46 140 -5 0 -20 -1 -33
-3z"/>
<path d="M5703 2265 c-32 -14 -39 -28 -27 -58 5 -14 10 -14 41 0 20 8 47 12
60 8 33 -8 62 -75 64 -145 0 -30 4 -79 8 -108 9 -61 6 -64 -59 -72 -41 -4 -45
-8 -48 -34 l-4 -28 65 6 65 7 6 -45 c6 -40 10 -46 31 -46 31 0 40 15 40 65 0
36 3 40 30 45 24 4 30 10 30 30 0 21 -5 25 -36 28 l-36 3 -11 67 c-6 37 -14
96 -18 132 -8 84 -34 134 -75 149 -42 15 -87 13 -126 -4z"/>
<path d="M5521 2251 c-8 -5 -14 -24 -14 -41 0 -37 17 -51 58 -48 29 3 30 5 30
48 0 43 -1 45 -30 48 -16 1 -36 -2 -44 -7z"/>
</g>
</svg>
